<svg width="30.000000000000004" height="30.000000000000004" xmlns="http://www.w3.org/2000/svg">

    <g>
        <title>background</title>
        <rect fill="none" id="canvas_background" height="402" width="582" y="-1" x="-1"/>
    </g>
    <g>
        <title>Layer 1</title>
        <path id="svg_1" fill="#009ffd" d="m19.4,24.3c-0.4,0 -0.8,0.3 -0.8,0.8c0,1.9 -1.5,3.4 -3.4,3.4l-8.1,0c-1.9,0 -3.4,-1.5 -3.4,-3.4l0,-20.1c0,-1.9 1.5,-3.4 3.4,-3.4l8.1,0c1.9,0 3.4,1.5 3.4,3.4c0,0.4 0.3,0.8 0.8,0.8s0.8,-0.3 0.8,-0.8c0,-2.7 -2.2,-4.9 -4.9,-4.9l-8.2,0c-2.7,0 -4.9,2.2 -4.9,4.9l0,20c0,2.7 2.2,4.9 4.9,4.9l8.1,0c2.7,0 4.9,-2.2 4.9,-4.9c0,-0.4 -0.3,-0.7 -0.7,-0.7zm-6.9,1.4c0,-0.7 -0.6,-1.3 -1.3,-1.3c-0.7,0 -1.3,0.6 -1.3,1.3s0.6,1.3 1.3,1.3c0.8,0 1.3,-0.6 1.3,-1.3zm14.3,-4.7c-3,1 -6.2,0.5 -9.7,0c-3.6,-0.5 -7.4,-1.1 -10.8,0.3c-0.4,0.2 -0.6,0.6 -0.4,1c0.2,0.4 0.6,0.6 1,0.4c3,-1.3 6.4,-0.7 10,-0.2c2,0.3 3.9,0.6 5.9,0.6c1.5,0 3,-0.2 4.5,-0.7c0.4,-0.1 0.6,-0.6 0.5,-1c-0.2,-0.3 -0.6,-0.5 -1,-0.4zm-7.7,-7.4c-0.1,-0.2 -0.2,-0.3 -0.4,-0.4c-0.2,-0.1 -0.3,-0.2 -0.5,-0.3c-0.2,-0.1 -0.4,-0.2 -0.6,-0.2c0,-0.5 0,-0.9 0,-1.4c0.2,0 0.3,0.1 0.4,0.2c0.1,0.1 0.2,0.2 0.3,0.3s0.1,0.2 0.2,0.3c0.1,0.1 0.1,0.1 0.2,0.1c0.1,0 0.2,0 0.3,-0.1c0.1,-0.1 0.1,-0.2 0.1,-0.3c0,-0.2 0,-0.3 -0.2,-0.5c-0.1,-0.1 -0.2,-0.3 -0.4,-0.4c-0.2,-0.1 -0.3,-0.2 -0.5,-0.2c-0.2,0 -0.4,-0.1 -0.5,-0.1c0,-0.1 0,-0.1 0,-0.2c0,-0.1 0,-0.1 -0.1,-0.2s-0.1,-0.1 -0.2,-0.1c-0.1,0 -0.1,0 -0.2,0.1c0,0 -0.1,0.1 0,0.2c0,0 0,0.1 0,0.1c-0.2,0 -0.5,0.1 -0.7,0.2c-0.2,0.1 -0.4,0.2 -0.6,0.3c-0.2,0.1 -0.3,0.3 -0.3,0.4c-0.1,0.2 -0.1,0.4 -0.1,0.6c0,0.4 0.2,0.6 0.5,0.9c0.3,0.2 0.7,0.5 1.1,0.6c0,0.5 0,1 0,1.5c-0.2,0 -0.3,-0.1 -0.4,-0.1c-0.1,-0.1 -0.2,-0.1 -0.2,-0.2c0,-0.1 -0.1,-0.2 -0.1,-0.3c0,-0.1 0,-0.2 -0.1,-0.3c0,-0.1 -0.1,-0.1 -0.1,-0.2c-0.1,-0.1 -0.1,-0.1 -0.3,-0.1c-0.1,0 -0.2,0 -0.3,0.1c-0.1,0.1 -0.1,0.2 -0.1,0.3c0,0.1 0,0.3 0.1,0.5c0.1,0.2 0.2,0.3 0.3,0.5c0.1,0.1 0.3,0.3 0.5,0.4c0.2,0.1 0.5,0.1 0.8,0.1c0,0.1 0,0.3 0,0.4c0,0.1 0,0.1 0.1,0.1c0,0 0.1,0.1 0.2,0.1c0.1,0 0.1,0 0.2,-0.1c0,0 0.1,-0.1 0,-0.2c0,-0.1 0,-0.3 0,-0.4c0.3,0 0.5,-0.1 0.8,-0.2c0.2,-0.1 0.4,-0.2 0.6,-0.3s0.3,-0.3 0.3,-0.4c0.1,-0.2 0.1,-0.3 0.1,-0.6c-0.1,-0.1 -0.1,-0.3 -0.2,-0.5zm-2.5,-1.4c-0.1,-0.1 -0.2,-0.3 -0.2,-0.4c0,-0.1 0,-0.1 0,-0.2s0.1,-0.1 0.1,-0.2c0.1,-0.1 0.1,-0.1 0.2,-0.1c0.1,0 0.2,-0.1 0.3,-0.1c0,0.4 0,0.8 0,1.3c-0.1,-0.1 -0.2,-0.2 -0.4,-0.3zm1.7,2.4c0,0.1 -0.1,0.1 -0.2,0.2c-0.1,0.1 -0.2,0.1 -0.3,0.1s-0.2,0 -0.3,0.1c0,-0.5 0,-0.9 0,-1.4c0.1,0 0.2,0.1 0.3,0.1c0.1,0 0.2,0.1 0.3,0.1c0.1,0.1 0.1,0.1 0.2,0.2c0.1,0.1 0.1,0.2 0.1,0.3c0,0.1 0,0.2 -0.1,0.3zm9.2,-8.1c-0.2,-0.1 -0.5,-0.2 -0.7,-0.1c-1.2,0.5 -2.6,0.8 -4.3,0.8c-2,0 -4.1,-0.3 -6.1,-0.7c-2,-0.3 -4.1,-0.7 -6,-0.7c-1.6,0 -2.9,0.2 -4.1,0.7c-0.3,0.2 -0.5,0.5 -0.5,0.8l0,12.2c0,0.2 0.1,0.5 0.3,0.6c0.2,0.1 0.5,0.2 0.7,0.1c1.3,-0.5 2.7,-0.8 4.4,-0.8c1.8,0 3.7,0.3 5.6,0.6c1.9,0.3 3.9,0.6 5.9,0.6c1.7,0 3.1,-0.2 4.5,-0.7c0.3,-0.1 0.5,-0.4 0.5,-0.7l0,-12.1c0.1,-0.2 0,-0.5 -0.2,-0.6zm-1.2,12.1c-1,0.3 -2.2,0.4 -3.5,0.4c-1.8,0 -3.8,-0.3 -5.7,-0.6c-1.9,-0.3 -3.9,-0.6 -5.8,-0.6c-1.5,0 -2.8,0.2 -4,0.5l0,-10.5c0.9,-0.3 1.8,-0.4 3,-0.4c1.8,0 3.7,0.3 5.8,0.6c2.1,0.3 4.3,0.7 6.4,0.7c1.4,0 2.7,-0.2 3.8,-0.5l0,10.4z"/>
    </g>
</svg>